<mxfile host="65bd71144e">
    <diagram id="aKsC7uZMkxC5IT7NJM8s" name="第 1 页">
        <mxGraphModel dx="1003" dy="679" grid="1" gridSize="10" guides="1" tooltips="1" connect="1" arrows="1" fold="1" page="1" pageScale="1" pageWidth="1169" pageHeight="827" background="none" math="0" shadow="1">
            <root>
                <mxCell id="0"/>
                <mxCell id="1" parent="0"/>
            </root>
        </mxGraphModel>
    </diagram>
</mxfile>